#!OML:ASF F:\VICON\USERDATA\INSTALL\rory3\rory3.ASF
:FULLY-SPECIFIED
:DEGREES
46
root -0.26161804671520045 16.937623243047867 7.120922174280865 3.5988987091080746 -3.4299075240131613 -5.170792368636238
lfemur -28.94374064724058 7.740261519101395 -10.72051569562654
ltibia 104.18100276851575
lfoot 0.36640626217706745 -4.791280485597824
ltoes -3.529347853621883
rfemur -21.29672254825287 3.9006975449744044 35.39827191963333
rtibia 55.86830770541338
rfoot -21.604870564121036 -16.414413821093785
rtoes -4.850916143143367
lowerback 17.837101263318424 0.7149946571169259 2.8648176685746662
upperback 0.022181162833559087 1.897561312527463 3.7102293681952916
thorax -10.336230476383793 0.8426034144760096 1.7311570510644276
lowerneck -22.48333543733555 -3.2480308410621155 -1.447921946965537
upperneck 12.021786522270022 -4.154000699456763 1.8224179824862303
head 7.366847374498305 -1.8928266669066613 0.2619252972334382
lclavicle -2.0987881760067864e-15 1.514098644794221e-15
lhumerus -50.729247222442886 -17.566179014103092 100.90876787094564
lradius 97.20482543498758
lwrist 33.58919834613326
lhand -24.243305211102175 2.371505931496245
lfingers 7.12502
lthumb 2.242324340378327 32.31267482997533
rclavicle -2.0987881760067864e-15 1.514098644794221e-15
rhumerus -44.03031687813579 9.182150070895359 -95.08205667879396
rradius 108.5196491600296
rwrist -9.286692719984753
rhand -17.79884117251136 40.208864689446244
rfingers 7.12502
rthumb 8.463805605374306 9.705867374622894
47
root -0.2779429067195482 16.97735705049071 8.179214007078992 3.8479827910750948 -2.5377849774194696 -5.46802843243922
lfemur -33.930669369742425 7.673712932829224 -10.424459262525032
ltibia 105.13246445940163
lfoot -1.895045656660301 -3.697670321236842
ltoes -4.414375911418728
rfemur -16.994134227917066 3.5464863547801504 35.76719452707383
rtibia 55.558729914777544
rfoot -21.40570909930598 -16.86126888656074
rtoes -8.738989132147761
lowerback 17.785321683536132 0.9603227338005222 3.429736259307761
upperback -0.047469265330575494 2.332248243267771 3.6864161168221417
thorax -10.332158790288085 1.0139192519790299 1.246384276791379
lowerneck -22.53199880421002 -3.5217439912615167 -1.4299807597412837
upperneck 11.923698052215313 -4.550707908096245 2.0042138741817777
head 7.3579569115294765 -2.0676291864056506 0.2816898317904105
lclavicle -1.6947980268702573e-15 1.805942105474299e-15
lhumerus -52.75674003915928 -17.42637430875083 101.35926945390068
lradius 98.14841162066223
lwrist 33.93933209566661
lhand -23.727520621022386 2.627450931272225
lfingers 7.12502
lthumb 2.7404178637903094 32.557897137153375
rclavicle -1.6947980268702573e-15 1.805942105474299e-15
rhumerus -41.79521395858447 10.232066255941632 -94.73796249001533
rradius 109.70178944326565
rwrist -9.548351912487572
rhand -17.76589143017723 40.30979681245711
rfingers 7.12502
rthumb 8.495718394497768 9.833134445982695
48
root -0.2872839188846075 17.050092086807474 8.695052751916432 3.9789055221460843 -1.7613112507305217 -5.640113462940301
lfemur -38.28724883316734 7.0771989918847416 -10.783798255246522
ltibia 103.94003791355578
lfoot -3.9302150845053667 -3.146642637500666
ltoes -5.6081163870924335
rfemur -13.43753143517717 2.89815376821024 35.75580292966457
rtibia 53.459023153599354
rfoot -20.1150288298155 -16.451025027881787
rtoes -11.90651743061611
lowerback 17.580803354688914 1.127458254768776 3.7923706766098233
upperback -0.17584961721686632 2.614445333614283 3.5509520305164797
thorax -10.310025102815196 1.1224292188737013 0.679842590390462
lowerneck -22.474413158695945 -3.819276409968143 -1.4725312641090968
upperneck 11.884006338861685 -4.979181308784552 2.144447992904086
head 7.348789362085736 -2.2600898987100413 0.2948906245722614
lclavicle -2.03647555058609e-15 1.5571428574708531e-15
lhumerus -55.03638786986189 -17.39298312422189 101.5642741040358
lradius 98.88301858535138
lwrist 34.19934738392919
lhand -23.38411986374161 2.7536726001562353
lfingers 7.12502
lthumb 3.0720307181615665 32.67616116703789
rclavicle -2.03647555058609e-15 1.5571428574708531e-15
rhumerus -40.44405166123616 10.806403743758878 -94.46181290416567
rradius 110.76750661256501
rwrist -9.823722301499009
rhand -17.71426871527582 40.36023217569184
rfingers 7.12502
rthumb 8.545622585846562 9.959672536649578
49
root -0.2711280244791245 17.182469878003964 9.634738394606263 4.1383543877186595 -0.9181525067832897 -5.577654722479114
lfemur -41.10415140644968 6.261447016614656 -11.313924639588759
ltibia 101.99578521838576
lfoot -5.225192058461207 -2.654388914029451
ltoes -6.85831812905902
rfemur -9.426729320028718 2.23786628188848 35.68215876332704
rtibia 51.401165902155995
rfoot -17.052786502545537 -14.887247951655318
rtoes -13.454422128050915
lowerback 17.330393043430895 1.3223102377773328 4.181130156445534
upperback -0.31850591428033836 2.918305599665233 3.3812888230776337
thorax -10.24270025033321 1.2397059610144705 0.18475710466929274
lowerneck -22.23985258610196 -4.073754360924932 -1.512005457082879
upperneck 11.982433806154582 -5.346021182176183 2.2935461350444957
head 7.361641032297954 -2.4269045273512844 0.3146736523869304
lclavicle -1.6590378383636337e-15 1.82985813758058e-15
lhumerus -56.76860435249925 -17.051023851942443 101.6730590483311
lradius 99.78726391301524
lwrist 34.630752565746214
lhand -23.10349444104534 2.9278508920451918
lfingers 7.12502
lthumb 3.3430170005304736 32.843974852150865
rclavicle -1.659037838363634e-15 1.8298581375805802e-15
rhumerus -39.29137881732223 11.322197480544958 -94.06894117960975
rradius 111.97661177150331
rwrist -9.99166905920375
rhand -17.564863874290353 40.4232467289364
rfingers 7.12502
rthumb 8.689854704499083 10.149258419893084
